<svg width="1121" height="105" fill="none" xmlns="http://www.w3.org/2000/svg"><mask id="a" fill="#fff"><path fill-rule="evenodd" clip-rule="evenodd" d="M1121 0H7.693v45.959L0 50l7.693 4.041V105c217.387 0 379.602-.625 541.817-1.25 162.215-.625 324.43-1.25 541.82-1.25L1121 78V0z"/></mask><path d="M7.693 0v-2h-2v2h2zM1121 0h2v-2h-2v2zM7.693 45.959l.93 1.77 1.07-.562v-1.209h-2zM0 50l-.93-1.77L-4.3 50l3.37 1.77L0 50zm7.693 4.041h2v-1.208l-1.07-.562-.93 1.77zm0 50.959h-2v2h2v-2zm541.817-1.25l-.008-2 .008 2zm541.82-1.25v2h.72l.55-.458-1.27-1.542zM1121 78l1.27 1.542.73-.6V78h-2zM7.693 2H1121v-4H7.693v4zm2 43.959V0h-4v45.959h4zM.93 51.77l7.693-4.042-1.86-3.541-7.693 4.041L.93 51.77zm7.693.5L.93 48.229l-1.86 3.542 7.693 4.041 1.86-3.541zM9.693 105V54.041h-4V105h4zm539.809-3.25C387.287 102.375 225.076 103 7.693 103v4c217.391 0 379.609-.625 541.825-1.25l-.016-4zm541.828-1.25c-217.394 0-379.613.625-541.828 1.25l.016 4c162.214-.625 324.426-1.25 541.812-1.25v-4zm28.4-24.042l-29.68 24.5 2.55 3.084 29.67-24.5-2.54-3.084zM1119 0v78h4V0h-4z" fill="#00415F" mask="url(#a)"/></svg>