<?xml version="1.0" encoding="utf-8"?><svg viewBox="0 0 36 36" xmlns="http://www.w3.org/2000/svg" xmlns:xlink="http://www.w3.org/1999/xlink"><style>:root>svg{display:none}:root>svg:target{display:block}</style><svg fill="none" viewBox="0 0 20 20" id="burger-btn" xmlns="http://www.w3.org/2000/svg"><path d="M17.656 3.125H2.344a.157.157 0 00-.156.156v1.25c0 .086.07.157.156.157h15.312c.086 0 .157-.07.157-.157v-1.25a.157.157 0 00-.157-.156zm0 12.188H2.344a.157.157 0 00-.156.156v1.25c0 .086.07.156.156.156h15.312c.086 0 .157-.07.157-.156v-1.25a.157.157 0 00-.157-.156zm0-6.094H2.344a.157.157 0 00-.156.156v1.25c0 .086.07.156.156.156h15.312c.086 0 .157-.07.157-.156v-1.25a.157.157 0 00-.157-.156z" fill="#42515A"/></svg><svg fill="none" viewBox="0 0 36 36" id="close" xmlns="http://www.w3.org/2000/svg"><path d="M19.41 18l8.29-8.29a1 1 0 00-1.41-1.41L18 16.59l-8.29-8.3a1.004 1.004 0 00-1.42 1.42l8.3 8.29-8.3 8.29A1.001 1.001 0 109.7 27.7l8.3-8.29 8.29 8.29a1 1 0 001.41-1.41L19.41 18z" fill="#000"/></svg><svg fill="none" viewBox="0 0 20 20" id="drop-arrow" xmlns="http://www.w3.org/2000/svg"><path d="M5 6l5 5 5-5 2 1-7 7-7-7 2-1z" fill="#42515A"/></svg><svg fill="none" viewBox="0 0 24 24" id="mail" xmlns="http://www.w3.org/2000/svg"><path d="M21.75 3.75H2.25a.75.75 0 00-.75.75v15c0 .415.335.75.75.75h19.5a.75.75 0 00.75-.75v-15a.75.75 0 00-.75-.75zm-.938 2.597v12.216H3.188V6.347l-.646-.504.92-1.184 1.004.78h15.073l1.003-.78.92 1.184-.648.504zm-1.274-.91L12 11.297l-7.537-5.86-1.004-.78-.92 1.184.646.504 8.006 6.224a1.312 1.312 0 001.61 0l8.011-6.222.647-.504-.92-1.184-1.002.779z" fill="#00B1E4"/></svg><svg fill="none" viewBox="0 0 20 20" id="map" xmlns="http://www.w3.org/2000/svg"><g clip-path="url(#eclip0)" fill="#fff"><path d="M19.374 8.75a.625.625 0 00-.625.624v7.077l-5 2v-6.577a.625.625 0 00-1.25 0v6.576l-4.999-2V6.548l2.896 1.159a.625.625 0 10.464-1.161L7.119 5.048h-.001l-.01-.003a.62.62 0 00-.464 0l-.011.003H6.63L.393 7.545a.625.625 0 00-.392.58v11.249a.626.626 0 00.857.58l6.017-2.406 6.006 2.402h.001l.012.005a.62.62 0 00.463 0l.011-.005h.002l6.238-2.495a.629.629 0 00.391-.581v-7.5a.625.625 0 00-.625-.625zM6.25 16.45l-5 2V8.547l5-2v9.903zM15.624 2.5a1.877 1.877 0 00-1.874 1.875c0 1.033.84 1.875 1.874 1.875A1.877 1.877 0 0017.5 4.375 1.877 1.877 0 0015.625 2.5zm0 2.5a.625.625 0 110-1.25.625.625 0 010 1.25z"/><path d="M15.625 0a4.38 4.38 0 00-4.375 4.375c0 2.245 3.51 6.22 3.91 6.667a.628.628 0 00.93 0c.4-.446 3.91-4.422 3.91-6.667A4.38 4.38 0 0015.624 0zm0 9.67C14.26 8.053 12.5 5.568 12.5 4.376a3.13 3.13 0 013.125-3.125 3.13 3.13 0 013.124 3.125c0 1.19-1.76 3.677-3.124 5.296z"/></g><defs><clipPath id="eclip0"><path fill="#fff" d="M0 0h20v20H0z"/></clipPath></defs></svg><svg fill="none" viewBox="0 0 24 24" id="mobile-phone" xmlns="http://www.w3.org/2000/svg"><path d="M20.557 5.595L18.061 3.1a1.612 1.612 0 00-2.288 0l-2.688 2.683a1.618 1.618 0 000 2.293l2.1 2.102a9.503 9.503 0 01-2.025 2.983 9.522 9.522 0 01-2.981 2.03l-2.1-2.102a1.613 1.613 0 00-2.288 0l-2.69 2.683a1.618 1.618 0 000 2.293l2.494 2.493a2.806 2.806 0 002.423.78c3.103-.51 6.183-2.162 8.67-4.647 2.484-2.489 4.134-5.569 4.65-8.674a2.794 2.794 0 00-.781-2.423zm-.881 2.144c-.457 2.763-1.943 5.52-4.181 7.758-2.239 2.238-4.993 3.724-7.756 4.181a1.102 1.102 0 01-.956-.31l-2.45-2.448 2.597-2.6 2.808 2.813.021.02.507-.187a11.28 11.28 0 006.696-6.698l.187-.506-2.831-2.83 2.597-2.598 2.45 2.449c.252.253.37.61.31.956z" fill="#00B1E4"/></svg><svg fill="none" viewBox="0 0 24 24" id="phone" xmlns="http://www.w3.org/2000/svg"><path d="M12 10.5h1.5V12H12v-1.5zM15 10.5h1.5V12H15v-1.5zM18 10.5h1.5V12H18v-1.5zM12 13.5h1.5V15H12v-1.5zM15 13.5h1.5V15H15v-1.5zM18 13.5h1.5V15H18v-1.5zM12 16.5h1.5V18H12v-1.5zM15 16.5h1.5V18H15v-1.5zM18 16.5h1.5V18H18v-1.5zM12 7.5h7.5V9H12V7.5z" fill="#00B1E4"/><path d="M21 4.5H10.5v-.75A1.502 1.502 0 009 2.25H6a1.502 1.502 0 00-1.5 1.5v.75H3A1.502 1.502 0 001.5 6v13.5A1.501 1.501 0 003 21h18a1.502 1.502 0 001.5-1.5V6A1.502 1.502 0 0021 4.5zM6 3.75h3V16.5H6V3.75zM21 19.5H3V6h1.5v10.5A1.501 1.501 0 006 18h3a1.502 1.502 0 001.5-1.5V6H21v13.5z" fill="#00B1E4"/></svg><svg fill="none" viewBox="0 0 20 31" id="pin" xmlns="http://www.w3.org/2000/svg"><path d="M9.898 14.609c2.21 0 4-1.755 4-3.92 0-2.166-1.79-3.921-4-3.921-2.209 0-4 1.755-4 3.92 0 2.166 1.791 3.92 4 3.92z" stroke="#00B1E4" stroke-width="2" stroke-linecap="round" stroke-linejoin="round"/><path d="M17.897 14.609c-3 6.86-8 14.702-8 14.702s-5-7.841-8-14.702 2-12.742 8-12.742 11 5.88 8 12.742z" stroke="#00B1E4" stroke-width="2" stroke-linecap="round" stroke-linejoin="round"/></svg></svg>