<svg width="40" height="40" viewBox="0 0 40 40" fill="none" xmlns="http://www.w3.org/2000/svg">
<path d="M11.667 18.3333H15.0003V21.6667H11.667V18.3333ZM11.667 25H15.0003V28.3333H11.667V25ZM18.3337 18.3333H21.667V21.6667H18.3337V18.3333ZM18.3337 25H21.667V28.3333H18.3337V25ZM25.0003 18.3333H28.3337V21.6667H25.0003V18.3333ZM25.0003 25H28.3337V28.3333H25.0003V25Z" fill="#959CA1"/>
<path d="M8.33333 36.6667H31.6667C33.505 36.6667 35 35.1717 35 33.3333V10C35 8.16166 33.505 6.66666 31.6667 6.66666H28.3333V3.33333H25V6.66666H15V3.33333H11.6667V6.66666H8.33333C6.495 6.66666 5 8.16166 5 10V33.3333C5 35.1717 6.495 36.6667 8.33333 36.6667ZM31.6667 13.3333L31.6683 33.3333H8.33333V13.3333H31.6667Z" fill="#959CA1"/>
</svg>
