<svg width="21" height="21" viewBox="0 0 21 21" fill="none" xmlns="http://www.w3.org/2000/svg">
<path d="M19.743 10.5891L10.743 0.581836C10.364 0.15953 9.63598 0.15953 9.25698 0.581836L0.256984 10.5891C0.12744 10.7328 0.0424084 10.9111 0.012228 11.1022C-0.0179523 11.2934 0.00801874 11.4892 0.0869837 11.6659C0.246984 12.0271 0.604984 12.2593 0.999983 12.2593H2.99998V19.2644C2.99998 19.5298 3.10534 19.7843 3.29288 19.972C3.48041 20.1597 3.73477 20.2651 3.99998 20.2651H6.99998C7.2652 20.2651 7.51955 20.1597 7.70709 19.972C7.89462 19.7843 7.99998 19.5298 7.99998 19.2644V15.2615H12V19.2644C12 19.5298 12.1053 19.7843 12.2929 19.972C12.4804 20.1597 12.7348 20.2651 13 20.2651H16C16.2652 20.2651 16.5196 20.1597 16.7071 19.972C16.8946 19.7843 17 19.5298 17 19.2644V12.2593H19C19.1936 12.2601 19.3834 12.2045 19.546 12.0993C19.7087 11.9941 19.8372 11.8438 19.916 11.6668C19.9947 11.4897 20.0203 11.2935 19.9896 11.1022C19.9589 10.9108 19.8732 10.7326 19.743 10.5891Z" fill="#BEBEBE"/>
</svg>
