<svg width="50" height="50" viewBox="0 0 50 50" fill="none" xmlns="http://www.w3.org/2000/svg">
<g clip-path="url(#clip0)">
<path d="M8.33203 0V50H37.4987L49.9987 37.5V0H8.33203Z" fill="#EFEEEE"/>
<path d="M37.5 37.5V50L50 37.5H37.5Z" fill="#ABABAB"/>
<path d="M25 50H37.5V37.5L25 50Z" fill="#DEDEDD"/>
<path d="M0 12.5V27.0833H33.3333V12.5H0Z" fill="#61B565"/>
<path d="M6.40468 15.3459L7.55468 18.2334L8.69218 15.3459H10.6547L8.57968 19.7584L10.8047 24.2709H8.77968L7.49427 21.2459L6.21719 24.2709H4.24219L6.46719 19.7584L4.41719 15.3459H6.40468Z" fill="white"/>
<path d="M12.7539 15.3459H14.5539V22.7959H17.7393V24.2709H12.7539V15.3459Z" fill="white"/>
<path d="M21.2414 21.7459C21.2414 21.9542 21.2581 22.1438 21.2893 22.3126C21.3247 22.4834 21.3852 22.6271 21.4768 22.7438C21.5685 22.8626 21.6935 22.9542 21.8477 23.0209C21.9997 23.0855 22.1956 23.1209 22.4268 23.1209C22.7039 23.1209 22.9497 23.0313 23.1706 22.8521C23.3893 22.673 23.5018 22.3938 23.5018 22.0209C23.5018 21.8209 23.4727 21.648 23.4206 21.5021C23.3664 21.3563 23.2768 21.2251 23.1518 21.1105C23.0247 20.9917 22.8602 20.8876 22.6581 20.7917C22.456 20.6959 22.2018 20.598 21.9018 20.498C21.5039 20.3646 21.1581 20.2167 20.8643 20.0584C20.5727 19.9021 20.3289 19.7167 20.1331 19.5021C19.9372 19.2896 19.7935 19.0438 19.7018 18.7646C19.6102 18.4834 19.5643 18.1626 19.5643 17.7938C19.5643 16.9105 19.8102 16.2542 20.3018 15.8209C20.7914 15.3876 21.4685 15.1709 22.3268 15.1709C22.7268 15.1709 23.0956 15.2146 23.4331 15.3021C23.7706 15.3896 24.0622 15.5292 24.3081 15.7271C24.5539 15.923 24.7456 16.173 24.8831 16.4751C25.0185 16.7792 25.0893 17.1438 25.0893 17.5688V17.8188H23.3643C23.3643 17.3938 23.2893 17.0667 23.1414 16.8355C22.9914 16.6084 22.7414 16.4917 22.3914 16.4917C22.1914 16.4917 22.0247 16.523 21.8914 16.5792C21.7602 16.6376 21.6518 16.7146 21.5727 16.8105C21.4935 16.9063 21.4414 17.0167 21.4122 17.1417C21.381 17.2667 21.3685 17.3959 21.3685 17.5292C21.3685 17.8063 21.4268 18.0355 21.5435 18.223C21.6602 18.4126 21.9102 18.5855 22.2935 18.7417L23.681 19.3417C24.0227 19.4917 24.3018 19.648 24.5164 19.8126C24.7331 19.9751 24.9081 20.1501 25.0352 20.3376C25.1643 20.5251 25.2539 20.7292 25.3039 20.9563C25.3539 21.1792 25.3789 21.4313 25.3789 21.7042C25.3789 22.6459 25.106 23.3313 24.5602 23.7605C24.0143 24.1896 23.2539 24.4063 22.2789 24.4063C21.2622 24.4063 20.5352 24.1855 20.0956 23.7438C19.6581 23.3021 19.4414 22.6688 19.4414 21.8438V21.4813H21.2414V21.7459Z" fill="white"/>
</g>
<defs>
<clipPath id="clip0">
<rect width="50" height="50" fill="white"/>
</clipPath>
</defs>
</svg>
