<svg width="1121" height="105" viewBox="0 0 1121 105" fill="none" xmlns="http://www.w3.org/2000/svg">
<mask id="path-1-inside-1" fill="white">
<path fill-rule="evenodd" clip-rule="evenodd" d="M1121 0H7.69314V45.9585L0 50L7.69314 54.0415V105C225.08 105 387.295 104.375 549.51 103.75C711.725 103.125 873.94 102.5 1091.33 102.5L1121 78V0Z"/>
</mask>
<path d="M7.69314 0V-2H5.69314V0H7.69314ZM1121 0H1123V-2H1121V0ZM7.69314 45.9585L8.62327 47.7291L9.69314 47.1671V45.9585H7.69314ZM0 50L-0.930129 48.2294L-4.30048 50L-0.930129 51.7706L0 50ZM7.69314 54.0415H9.69314V52.8329L8.62327 52.2709L7.69314 54.0415ZM7.69314 105H5.69314V107H7.69314V105ZM549.51 103.75L549.502 101.75L549.51 103.75ZM1091.33 102.5V104.5H1092.05L1092.6 104.042L1091.33 102.5ZM1121 78L1122.27 79.5423L1123 78.9423V78H1121ZM7.69314 2H1121V-2H7.69314V2ZM9.69314 45.9585V0H5.69314V45.9585H9.69314ZM0.930129 51.7706L8.62327 47.7291L6.76301 44.188L-0.930129 48.2294L0.930129 51.7706ZM8.62327 52.2709L0.930129 48.2294L-0.930129 51.7706L6.76301 55.812L8.62327 52.2709ZM9.69314 105V54.0415H5.69314V105H9.69314ZM549.502 101.75C387.287 102.375 225.076 103 7.69314 103V107C225.084 107 387.302 106.375 549.518 105.75L549.502 101.75ZM1091.33 100.5C873.936 100.5 711.717 101.125 549.502 101.75L549.518 105.75C711.732 105.125 873.944 104.5 1091.33 104.5V100.5ZM1119.73 76.4577L1090.05 100.958L1092.6 104.042L1122.27 79.5423L1119.73 76.4577ZM1119 0V78H1123V0H1119Z" fill="#00415F" mask="url(#path-1-inside-1)"/>
</svg>
