<svg width="40" height="40" fill="none" xmlns="http://www.w3.org/2000/svg"><path d="M11.667 18.333H15v3.334h-3.333v-3.334zm0 6.667H15v3.333h-3.333V25zm6.667-6.667h3.333v3.334h-3.333v-3.334zm0 6.667h3.333v3.333h-3.333V25zM25 18.333h3.334v3.334H25v-3.334zM25 25h3.334v3.333H25V25z" fill="#959CA1"/><path d="M8.333 36.667h23.334A3.337 3.337 0 0035 33.333V10a3.337 3.337 0 00-3.333-3.333h-3.334V3.333H25v3.334H15V3.333h-3.333v3.334H8.333A3.337 3.337 0 005 10v23.333a3.337 3.337 0 003.333 3.334zm23.334-23.334l.001 20H8.333v-20h23.334z" fill="#959CA1"/></svg>