<svg width="20" height="20" fill="none" xmlns="http://www.w3.org/2000/svg"><g clip-path="url(#clip0)" fill="#42515A"><path d="M17.917 15h-2.5a.417.417 0 010-.833h2.5c.689 0 1.25-.561 1.25-1.25V7.083c0-.689-.561-1.25-1.25-1.25H2.083c-.689 0-1.25.561-1.25 1.25v5.834c0 .689.561 1.25 1.25 1.25h2.5a.417.417 0 010 .833h-2.5A2.086 2.086 0 010 12.917V7.083C0 5.935.934 5 2.083 5h15.834C19.066 5 20 5.935 20 7.083v5.834A2.086 2.086 0 0117.917 15zm-5.834 2.5h-5a.417.417 0 010-.833h5a.417.417 0 010 .833zm0-1.667h-5a.417.417 0 010-.833h5a.417.417 0 010 .833z"/><path d="M8.75 14.167H7.082a.417.417 0 010-.834h1.666a.417.417 0 010 .834zm6.666-8.334a.417.417 0 01-.417-.416V2.083c0-.689-.56-1.25-1.25-1.25h-7.5A1.25 1.25 0 005 2.083v3.334a.417.417 0 01-.833 0V2.083A2.084 2.084 0 016.249 0h7.5c1.15 0 2.084.935 2.084 2.083v3.334c0 .23-.187.416-.417.416z"/><path d="M13.75 20h-7.5a2.086 2.086 0 01-2.084-2.083V11.25c0-.23.187-.417.417-.417h10.833c.23 0 .417.187.417.417v6.667A2.086 2.086 0 0113.749 20zM5 11.667v6.25c0 .689.56 1.25 1.25 1.25h7.5c.688 0 1.25-.561 1.25-1.25v-6.25H5z"/></g><defs><clipPath id="clip0"><path fill="#fff" d="M0 0h20v20H0z"/></clipPath></defs></svg>