<svg width="50" height="50" fill="none" xmlns="http://www.w3.org/2000/svg"><g clip-path="url(#clip0)"><path d="M8.332 0v50h29.167l12.5-12.5V0H8.332z" fill="#EFEEEE"/><path d="M37.5 37.5V50L50 37.5H37.5z" fill="#ABABAB"/><path d="M25 50h12.5V37.5L25 50z" fill="#DEDEDD"/><path d="M0 12.5v14.583h33.333V12.5H0z" fill="#61B565"/><path d="M6.405 15.346l1.15 2.887 1.137-2.887h1.963L8.58 19.758l2.225 4.513H8.78l-1.286-3.025-1.277 3.025H4.242l2.225-4.513-2.05-4.412h1.988zm6.349 0h1.8v7.45h3.185v1.475h-4.985v-8.925zm8.487 6.4c0 .208.017.398.048.567.036.17.096.314.188.43.091.12.216.211.37.278.153.064.349.1.58.1.277 0 .523-.09.744-.269.218-.179.33-.458.33-.831 0-.2-.028-.373-.08-.519a1.003 1.003 0 00-.27-.392 1.925 1.925 0 00-.493-.318 6.915 6.915 0 00-.756-.294 6.65 6.65 0 01-1.038-.44 2.712 2.712 0 01-.73-.556 1.991 1.991 0 01-.432-.737 3.121 3.121 0 01-.138-.971c0-.884.246-1.54.738-1.973.49-.433 1.166-.65 2.025-.65.4 0 .769.044 1.106.131.338.088.63.227.875.425.246.196.438.446.575.748.136.304.206.669.206 1.094v.25h-1.725c0-.425-.075-.752-.223-.983-.15-.228-.4-.344-.75-.344-.2 0-.366.031-.5.087a.858.858 0 00-.318.232.793.793 0 00-.16.33 1.593 1.593 0 00-.044.388c0 .277.058.506.175.694.116.19.366.363.75.519l1.387.6c.342.15.62.306.835.47.217.163.392.338.52.526.128.187.218.391.268.618.05.223.075.475.075.748 0 .942-.273 1.627-.819 2.056-.546.43-1.306.646-2.281.646-1.017 0-1.744-.22-2.183-.662-.438-.442-.655-1.075-.655-1.9v-.363h1.8v.265z" fill="#fff"/></g><defs><clipPath id="clip0"><path fill="#fff" d="M0 0h50v50H0z"/></clipPath></defs></svg>