<svg width="20" height="20" viewBox="0 0 20 20" fill="none" xmlns="http://www.w3.org/2000/svg">
<g clip-path="url(#clip0)">
<path d="M19.3744 8.74947C19.0294 8.74947 18.7494 9.02945 18.7494 9.37443V16.4515L13.7498 18.4514V11.8743C13.7498 11.5293 13.4698 11.2493 13.1248 11.2493C12.7798 11.2493 12.4998 11.5293 12.4998 11.8743V18.4501L7.50014 16.4502V6.54835L10.3962 7.70703C10.7124 7.83452 11.0799 7.67953 11.2087 7.3583C11.3374 7.03832 11.1812 6.67459 10.8599 6.54585L7.11892 5.04844C7.11892 5.04844 7.11892 5.04844 7.11767 5.04844L7.10767 5.04469C6.95893 4.9847 6.79269 4.9847 6.64394 5.04469L6.6327 5.04844C6.6327 5.04844 6.6327 5.04844 6.63145 5.04844L0.393086 7.54454C0.156851 7.63953 0.000610352 7.86827 0.000610352 8.1245V19.3738C0.000610352 19.5813 0.104354 19.775 0.275593 19.8913C0.380587 19.9625 0.501829 19.9988 0.625571 19.9988C0.704316 19.9988 0.783061 19.9838 0.858057 19.9538L6.87518 17.5477L12.8811 19.95C12.8811 19.95 12.8811 19.95 12.8823 19.95L12.8936 19.955C13.0423 20.015 13.2085 20.015 13.3573 19.955L13.3685 19.95C13.3685 19.95 13.3685 19.95 13.3698 19.95L19.6081 17.4552C19.8431 17.3589 19.9994 17.1302 19.9994 16.874V9.37443C19.9994 9.02945 19.7194 8.74947 19.3744 8.74947ZM6.25022 16.4502L1.25053 18.4501V8.54698L6.25022 6.5471V16.4502Z" fill="white"/>
<path d="M15.6245 2.49988C14.5908 2.49988 13.7496 3.34108 13.7496 4.37476C13.7496 5.40845 14.5908 6.24964 15.6245 6.24964C16.6582 6.24964 17.4994 5.40845 17.4994 4.37476C17.4994 3.34108 16.6582 2.49988 15.6245 2.49988ZM15.6245 4.99972C15.2795 4.99972 14.9996 4.71974 14.9996 4.37476C14.9996 4.02978 15.2795 3.7498 15.6245 3.7498C15.9695 3.7498 16.2495 4.02978 16.2495 4.37476C16.2495 4.71974 15.9695 4.99972 15.6245 4.99972Z" fill="white"/>
<path d="M15.6246 0C13.2123 0 11.2499 1.96238 11.2499 4.37473C11.2499 6.61959 14.7597 10.5956 15.1596 11.0418C15.2784 11.1731 15.4471 11.2493 15.6246 11.2493C15.8021 11.2493 15.9708 11.1731 16.0896 11.0418C16.4896 10.5956 19.9993 6.61959 19.9993 4.37473C19.9993 1.96238 18.037 0 15.6246 0ZM15.6246 9.67065C14.2597 8.052 12.4998 5.56715 12.4998 4.37473C12.4998 2.65233 13.9022 1.24992 15.6246 1.24992C17.347 1.24992 18.7494 2.65233 18.7494 4.37473C18.7494 5.5659 16.9895 8.052 15.6246 9.67065Z" fill="white"/>
</g>
<defs>
<clipPath id="clip0">
<rect width="20" height="20" fill="white"/>
</clipPath>
</defs>
</svg>
