<svg width="24" height="24" viewBox="0 0 24 24" fill="none" xmlns="http://www.w3.org/2000/svg">
<path d="M12 10.5H13.5V12H12V10.5Z" fill="#00B1E4"/>
<path d="M15 10.5H16.5V12H15V10.5Z" fill="#00B1E4"/>
<path d="M18 10.5H19.5V12H18V10.5Z" fill="#00B1E4"/>
<path d="M12 13.5H13.5V15H12V13.5Z" fill="#00B1E4"/>
<path d="M15 13.5H16.5V15H15V13.5Z" fill="#00B1E4"/>
<path d="M18 13.5H19.5V15H18V13.5Z" fill="#00B1E4"/>
<path d="M12 16.5H13.5V18H12V16.5Z" fill="#00B1E4"/>
<path d="M15 16.5H16.5V18H15V16.5Z" fill="#00B1E4"/>
<path d="M18 16.5H19.5V18H18V16.5Z" fill="#00B1E4"/>
<path d="M12 7.5H19.5V9H12V7.5Z" fill="#00B1E4"/>
<path d="M21 4.5H10.5V3.75C10.4996 3.3523 10.3414 2.971 10.0602 2.68978C9.779 2.40856 9.3977 2.2504 9 2.25H6C5.6023 2.2504 5.221 2.40856 4.93978 2.68978C4.65856 2.971 4.5004 3.3523 4.5 3.75V4.5H3C2.6023 4.5004 2.221 4.65856 1.93978 4.93978C1.65856 5.221 1.5004 5.6023 1.5 6V19.5C1.5004 19.8977 1.65856 20.279 1.93978 20.5602C2.221 20.8414 2.6023 20.9996 3 21H21C21.3977 20.9996 21.779 20.8414 22.0602 20.5602C22.3414 20.279 22.4996 19.8977 22.5 19.5V6C22.4996 5.6023 22.3414 5.221 22.0602 4.93978C21.779 4.65856 21.3977 4.5004 21 4.5ZM6 3.75H9V16.5H6V3.75ZM21 19.5H3V6H4.5V16.5C4.5004 16.8977 4.65856 17.279 4.93978 17.5602C5.221 17.8414 5.6023 17.9996 6 18H9C9.3977 17.9996 9.779 17.8414 10.0602 17.5602C10.3414 17.279 10.4996 16.8977 10.5 16.5V6H21V19.5Z" fill="#00B1E4"/>
</svg>
